# xmcd
#
# Track frame offsets:
#	183
#	19118
#	33735
#	51298
#	67240
#	86830
#	102603
#	116108
#	128000
#	142730
#	155953
#	169298
#	185338
#	198028
#	212943
#	222800
#
# Disc length: 3243 seconds
#
# Revision: 2
# Processed by: cddbd v1.4PL0 Copyright (c) Steve Scherf et al.
# Submitted via: audiograbber 1.80.04
#
DISCID=f70ca910
DTITLE=Ray Charles - Ray Charles Collection - Volume 1
DYEAR=1900
DGENRE=Blues
TTITLE0=I Can't stop loving you
TTITLE1=You don't know me
TTITLE2=Ruby
TTITLE3=It makes no difference now
TTITLE4=That luky old sun
TTITLE5=Cry
TTITLE6=Let go get stoned
TTITLE7=Together again
TTITLE8=Here we go again
TTITLE9=Take these chains from my heart
TTITLE10=Eleanor Rigby
TTITLE11=I love you so much it hurts
TTITLE12=Making believe
TTITLE13=Smack dab in the middle
TTITLE14=Hey good looking
TTITLE15=What'd did i say ( Live )
EXTD=
EXTT0=
EXTT1=
EXTT2=
EXTT3=
EXTT4=
EXTT5=
EXTT6=
EXTT7=
EXTT8=
EXTT9=
EXTT10=
EXTT11=
EXTT12=
EXTT13=
EXTT14=
EXTT15=
PLAYORDER=
